<svg id="Capa_1" enable-background="new 0 0 512 512" height="512" viewBox="0 0 512 512" width="512" xmlns="http://www.w3.org/2000/svg"><path d="m343.16 512h-174.32c-4.418 0-8-3.582-8-8v-15.03c0-4.418 3.582-8 8-8h174.32c4.418 0 8 3.582 8 8v15.03c0 4.418-3.582 8-8 8z" fill="#e2dfe2"/><path d="m330.473 480.97v31.03h12.445c4.552 0 8.241-3.69 8.241-8.241v-14.547c0-4.552-3.69-8.241-8.241-8.241h-12.445z" fill="#d3ced5"/><path d="m490.448 414.772h-468.896c-11.046 0-20-8.954-20-20v-319.952c0-11.046 8.954-20 20-20h468.897c11.046 0 20 8.954 20 20v319.952c-.001 11.045-8.955 20-20.001 20z" fill="#e2dfe2"/><path d="m489.762 54.82h-15.515c11.425 0 20.687 9.262 20.687 20.687v318.578c0 11.425-9.262 20.687-20.687 20.687h15.515c11.425 0 20.687-9.262 20.687-20.687v-318.578c-.001-11.425-9.262-20.687-20.687-20.687z" fill="#d3ced5"/><path d="m32.582 373.741v-277.89c0-5.523 4.477-10 10-10h426.836c5.523 0 10 4.477 10 10v277.891c0 5.523-4.477 10-10 10h-426.836c-5.523-.001-10-4.478-10-10.001z" fill="#90d8f9"/><path d="m326.335 480.97-10.343-66.198h-59.992-59.992l-10.343 66.198z" fill="#e2dfe2"/><path d="m319.224 435.459-3.232-20.687h-59.992-59.992l-3.232 20.687z" fill="#d3ced5"/><path d="m400.808 343.402h-289.616v-323.402c0-11.046 8.954-20 20-20h249.616c11.046 0 20 8.954 20 20z" fill="#e4f6ff"/><path d="m380.121 0h-20.687c11.425 0 20.687 9.262 20.687 20.687v322.715h20.687v-322.715c0-11.425-9.262-20.687-20.687-20.687z" fill="#d3effb"/><path d="m184.63 139.15h-31.03c-4.267 0-7.726 3.459-7.726 7.726v72.404c0 4.267 3.459 7.726 7.726 7.726h31.03c4.267 0 7.726-3.459 7.726-7.726v-72.404c.001-4.266-3.459-7.726-7.726-7.726z" fill="#aad540"/><path d="m242.553 97.777h-31.03c-4.267 0-7.726 3.459-7.726 7.726v113.778c0 4.267 3.459 7.726 7.726 7.726h31.03c4.267 0 7.726-3.459 7.726-7.726v-113.778c.001-4.267-3.459-7.726-7.726-7.726z" fill="#a2f4c1"/><path d="m300.477 118.464h-31.03c-4.267 0-7.726 3.459-7.726 7.726v93.091c0 4.267 3.459 7.726 7.726 7.726h31.03c4.267 0 7.726-3.459 7.726-7.726v-93.091c0-4.267-3.459-7.726-7.726-7.726z" fill="#f4dd45"/><path d="m358.4 66.746h-31.03c-4.267 0-7.726 3.459-7.726 7.726v144.808c0 4.267 3.459 7.726 7.726 7.726h31.03c4.267 0 7.726-3.459 7.726-7.726v-144.807c0-4.267-3.459-7.727-7.726-7.727z" fill="#e27a66"/><path d="m375.984 227.007h-239.968c-4.267 0-7.726-3.459-7.726-7.726s3.459-7.726 7.726-7.726h239.968c4.267 0 7.726 3.459 7.726 7.726s-3.459 7.726-7.726 7.726z" fill="#665e66"/><path d="m169.122 97.715c-2.475 0-4.906-1.187-6.4-3.389-2.396-3.531-1.476-8.336 2.055-10.732l57.923-39.305c2.076-1.407 4.704-1.721 7.051-.841l53.907 20.215 54.521-41.865c3.385-2.598 8.236-1.961 10.834 1.423 2.599 3.385 1.962 8.235-1.423 10.834l-57.923 44.477c-2.116 1.625-4.921 2.043-7.419 1.106l-54.181-20.317-54.615 37.06c-1.327.902-2.837 1.334-4.33 1.334z" fill="#665e66"/><path d="m227.038 242.585h-82.747c-4.267 0-7.726 3.459-7.726 7.726v62.061c0 4.267 3.459 7.726 7.726 7.726h82.747c4.267 0 7.726-3.459 7.726-7.726v-62.061c.001-4.267-3.459-7.726-7.726-7.726z" fill="#aad540"/><path d="m429.77 351.128h-347.54c-4.267 0-7.726-3.459-7.726-7.726s3.459-7.726 7.726-7.726h347.54c4.267 0 7.726 3.459 7.726 7.726s-3.459 7.726-7.726 7.726z" fill="#d3effb"/><g fill="#665e66"><path d="m371.847 258.037h-115.847c-4.267 0-7.726-3.459-7.726-7.726s3.459-7.726 7.726-7.726h115.847c4.267 0 7.726 3.459 7.726 7.726s-3.459 7.726-7.726 7.726z"/><path d="m330.473 320.098h-74.473c-4.267 0-7.726-3.459-7.726-7.726s3.459-7.726 7.726-7.726h74.473c4.267 0 7.726 3.459 7.726 7.726s-3.459 7.726-7.726 7.726z"/><path d="m371.847 289.068h-115.847c-4.267 0-7.726-3.459-7.726-7.726s3.459-7.726 7.726-7.726h115.847c4.267 0 7.726 3.459 7.726 7.726s-3.459 7.726-7.726 7.726z"/></g></svg>