<svg id="Capa_1" enable-background="new 0 0 512 512" height="512" viewBox="0 0 512 512" width="512" xmlns="http://www.w3.org/2000/svg"><path d="m495.35 368.91h-478.7v-316.764c0-5.523 4.477-10 10-10h458.7c5.523 0 10 4.477 10 10z" fill="#e4f6ff"/><path d="m479.74 42.146v300.748c0 5.747-4.659 10.407-10.406 10.407h-452.684v15.61h478.7v-316.463c0-5.69-4.612-10.302-10.302-10.302z" fill="#d3effb"/><path d="m502 400.13h-492c-5.523 0-10-4.477-10-10v-11.22c0-5.523 4.477-10 10-10h492c5.523 0 10 4.477 10 10v11.22c0 5.522-4.477 10-10 10z" fill="#c6865c"/><path d="m497.431 368.91v20.813 10.406h4.267c5.69 0 10.302-4.612 10.302-10.302v-10.616c0-5.69-4.612-10.302-10.302-10.302h-4.267z" fill="#b16e3d"/><path d="m240.39 505.479v-105.349h31.219v105.35c0 3.314-2.686 6-6 6h-19.219c-3.313-.001-6-2.687-6-6.001z" fill="#b16e3d"/><path d="m240.39 400.13h31.22v31.22h-31.22z" fill="#985e33"/><path d="m357.732 507.018-30.968-106.888h31.22l29.971 103.448c1.145 3.954-1.821 7.901-5.937 7.901h-18.349c-2.751 0-5.171-1.818-5.937-4.461z" fill="#b16e3d"/><path d="m367.029 431.349-9.045-31.219h-31.22l9.045 31.219z" fill="#985e33"/><path d="m154.268 507.018 30.968-106.889h-31.22l-29.971 103.448c-1.145 3.954 1.821 7.901 5.937 7.901h18.349c2.751.001 5.171-1.817 5.937-4.46z" fill="#b16e3d"/><path d="m144.971 431.349 9.045-31.219h31.22l-9.045 31.219z" fill="#985e33"/><path d="m240.39 42.147v-31.626c0-5.523 4.477-10 10-10h11.22c5.523 0 10 4.477 10 10v31.626z" fill="#c6865c"/><path d="m210.618 181.593h-136.098c-5.523 0-10-4.477-10-10v-84.065c0-5.523 4.477-10 10-10h136.098c5.523 0 10 4.477 10 10v84.065c0 5.523-4.477 10-10 10z" fill="#f4dd45"/><path d="m210.618 229.463h-136.098c-5.523 0-10 4.477-10 10v84.065c0 5.523 4.477 10 10 10h136.098c5.523 0 10-4.477 10-10v-84.065c0-5.523-4.477-10-10-10z" fill="#a2f4c1"/><path d="m301.382 181.593h136.098c5.523 0 10-4.477 10-10v-84.065c0-5.523-4.477-10-10-10h-136.098c-5.523 0-10 4.477-10 10v84.065c0 5.523 4.477 10 10 10z" fill="#e27a66"/><path d="m301.382 229.463h136.098c5.523 0 10 4.477 10 10v84.065c0 5.523-4.477 10-10 10h-136.098c-5.523 0-10-4.477-10-10v-84.065c0-5.523 4.477-10 10-10z" fill="#90d8f9"/><path d="m445.12 329.787-34.448-54.613c-2.93-4.645-9.499-5.179-13.14-1.068l-18.889 21.327c-3.251 3.671-8.969 3.708-12.268.079l-9.129-10.042c-3.047-3.352-8.227-3.616-11.6-.593l-51.073 45.79c1.85 1.768 4.351 2.86 7.111 2.86h135.494c3.196.001 6.052-1.455 7.942-3.74z" fill="#aad540"/><circle cx="325.724" cy="258.601" fill="#f4dd45" r="10.407"/><g fill="#544f57"><path d="m189.398 116.474h-56.195c-4.268 0-7.726-3.459-7.726-7.726s3.459-7.726 7.726-7.726h56.195c4.268 0 7.726 3.459 7.726 7.726s-3.458 7.726-7.726 7.726z"/><path d="m106.146 116.474h-10.407c-4.268 0-7.726-3.459-7.726-7.726s3.459-7.726 7.726-7.726h10.406c4.268 0 7.726 3.459 7.726 7.726s-3.458 7.726-7.725 7.726z"/><path d="m189.398 158.1h-56.195c-4.268 0-7.726-3.459-7.726-7.726s3.459-7.726 7.726-7.726h56.195c4.268 0 7.726 3.459 7.726 7.726.001 4.266-3.458 7.726-7.726 7.726z"/><path d="m106.146 158.1h-10.407c-4.268 0-7.726-3.459-7.726-7.726s3.459-7.726 7.726-7.726h10.406c4.268 0 7.726 3.459 7.726 7.726.001 4.266-3.458 7.726-7.725 7.726z"/></g></svg>