<svg id="Capa_1" enable-background="new 0 0 512 512" height="512" viewBox="0 0 512 512" width="512" xmlns="http://www.w3.org/2000/svg"><path d="m492 393.366h-472c-11.046 0-20-8.954-20-20v-336.715c0-11.046 8.954-20 20-20h472c11.046 0 20 8.954 20 20v336.715c0 11.045-8.954 20-20 20z" fill="#e4f6ff"/><path d="m491.187 16.651h-27.057c11.495 0 20.813 9.318 20.813 20.813v335.089c0 11.495-9.318 20.813-20.813 20.813h27.057c11.495 0 20.813-9.318 20.813-20.813v-335.089c0-11.495-9.318-20.813-20.813-20.813z" fill="#d3effb"/><path d="m512 79.09h-512v-42.439c0-11.046 8.954-20 20-20h472c11.046 0 20 8.954 20 20z" fill="#90d8f9"/><path d="m491.187 16.651h-27.057c11.495 0 20.813 9.318 20.813 20.813v41.626h27.057v-41.626c0-11.495-9.318-20.813-20.813-20.813z" fill="#75cef9"/><path d="m394.406 495.349h-306.698c-2.88 0-5.67-1.006-7.887-2.843l-23.418-19.403c-4.972-4.12-4.972-11.745 0-15.865l23.418-19.403c2.218-1.837 5.007-2.843 7.887-2.843h306.698z" fill="#f4dd45"/><path d="m56.403 457.238 3.703-3.069 22.572 18.702c3.734 3.094 8.43 4.787 13.279 4.787h298.449v17.691h-306.698c-2.88 0-5.67-1.006-7.887-2.843l-23.418-19.403c-4.972-4.119-4.972-11.745 0-15.865z" fill="#ecc32e"/><path d="m394.406 434.992v60.358h60.462c5.69 0 10.302-4.612 10.302-10.302v-39.754c0-5.69-4.612-10.302-10.302-10.302z" fill="#e27a66"/><path d="m394.406 477.658v17.691h60.462c5.69 0 10.302-4.612 10.302-10.302v-7.389z" fill="#dd544f"/><circle cx="42.667" cy="47.87" fill="#e27a66" r="10.407"/><circle cx="85.333" cy="47.87" fill="#f4dd45" r="10.407"/><circle cx="128" cy="47.87" fill="#aad540" r="10.407"/><path d="m394.406 457.444h-297.625c-4.268 0-7.726 3.459-7.726 7.726s3.459 7.726 7.726 7.726h297.626v-15.452z" fill="#665e66"/><path d="m414.179 226.42h-150.453v-28.697c0-4.267-3.459-7.726-7.726-7.726s-7.726 3.459-7.726 7.726v28.697h-150.453c-4.268 0-7.726 3.459-7.726 7.726v38.504c0 4.267 3.459 7.726 7.726 7.726 4.268 0 7.726-3.459 7.726-7.726v-30.778h142.726v30.778c0 4.267 3.459 7.726 7.726 7.726s7.726-3.459 7.726-7.726v-30.778h142.726v30.778c0 4.267 3.459 7.726 7.726 7.726 4.268 0 7.726-3.459 7.726-7.726v-38.504c.002-4.267-3.456-7.726-7.724-7.726z" fill="#665e66"/><path d="m298.033 197.724h-84.065c-5.523 0-10-4.477-10-10v-63.252c0-5.523 4.477-10 10-10h84.065c5.523 0 10 4.477 10 10v63.252c0 5.522-4.478 10-10 10z" fill="#aad540"/><path d="m298.033 355.902h-84.065c-5.523 0-10-4.477-10-10v-63.252c0-5.523 4.477-10 10-10h84.065c5.523 0 10 4.477 10 10v63.252c0 5.523-4.478 10-10 10z" fill="#aad540"/><path d="m139.854 355.902h-84.065c-5.523 0-10-4.477-10-10v-63.252c0-5.523 4.477-10 10-10h84.065c5.523 0 10 4.477 10 10v63.252c0 5.523-4.477 10-10 10z" fill="#aad540"/><path d="m372.146 355.902h84.065c5.523 0 10-4.477 10-10v-63.252c0-5.523-4.477-10-10-10h-84.065c-5.523 0-10 4.477-10 10v63.252c0 5.523 4.478 10 10 10z" fill="#aad540"/><g fill="#665e66"><path d="m281.886 148.214h-52.032c-4.268 0-7.726-3.459-7.726-7.726s3.459-7.726 7.726-7.726h52.032c4.268 0 7.726 3.459 7.726 7.726s-3.458 7.726-7.726 7.726z"/><path d="m281.886 179.434h-52.032c-4.268 0-7.726-3.459-7.726-7.726s3.459-7.726 7.726-7.726h52.032c4.268 0 7.726 3.459 7.726 7.726.001 4.266-3.458 7.726-7.726 7.726z"/><path d="m440.195 306.393h-52.032c-4.268 0-7.726-3.459-7.726-7.726s3.459-7.726 7.726-7.726h52.032c4.268 0 7.726 3.459 7.726 7.726s-3.458 7.726-7.726 7.726z"/><path d="m440.195 337.613h-52.032c-4.268 0-7.726-3.459-7.726-7.726s3.459-7.726 7.726-7.726h52.032c4.268 0 7.726 3.459 7.726 7.726 0 4.266-3.458 7.726-7.726 7.726z"/><path d="m282.016 306.393h-52.032c-4.268 0-7.726-3.459-7.726-7.726s3.459-7.726 7.726-7.726h52.032c4.268 0 7.726 3.459 7.726 7.726s-3.458 7.726-7.726 7.726z"/><path d="m282.016 337.613h-52.032c-4.268 0-7.726-3.459-7.726-7.726s3.459-7.726 7.726-7.726h52.032c4.268 0 7.726 3.459 7.726 7.726 0 4.266-3.458 7.726-7.726 7.726z"/><path d="m123.837 306.393h-52.032c-4.268 0-7.726-3.459-7.726-7.726s3.459-7.726 7.726-7.726h52.032c4.268 0 7.726 3.459 7.726 7.726s-3.458 7.726-7.726 7.726z"/><path d="m123.837 337.613h-52.032c-4.268 0-7.726-3.459-7.726-7.726s3.459-7.726 7.726-7.726h52.032c4.268 0 7.726 3.459 7.726 7.726 0 4.266-3.458 7.726-7.726 7.726z"/></g></svg>