<svg id="Capa_1" enable-background="new 0 0 512 512" height="512" viewBox="0 0 512 512" width="512" xmlns="http://www.w3.org/2000/svg"><path d="m492 512h-472c-11.046 0-20-8.954-20-20v-472c0-11.046 8.954-20 20-20h472c11.046 0 20 8.954 20 20v472c0 11.046-8.954 20-20 20z" fill="#e4f6ff"/><path d="m491.187 0h-27.057c11.495 0 20.813 9.318 20.813 20.813v470.374c0 11.495-9.318 20.813-20.813 20.813h27.057c11.495 0 20.813-9.318 20.813-20.813v-470.374c0-11.495-9.318-20.813-20.813-20.813z" fill="#d3effb"/><path d="m512 62.439h-512v-42.439c0-11.046 8.954-20 20-20h472c11.046 0 20 8.954 20 20z" fill="#90d8f9"/><path d="m491.187 0h-27.057c11.495 0 20.813 9.318 20.813 20.813v41.626h27.057v-41.626c0-11.495-9.318-20.813-20.813-20.813z" fill="#75cef9"/><path d="m221.024 471.415h-171.479c-5.523 0-10-4.477-10-10v-349.431c0-5.523 4.477-10 10-10h171.48c5.523 0 10 4.477 10 10v349.431c-.001 5.522-4.478 10-10.001 10z" fill="#a2f4c1"/><path d="m290.976 293.463h171.48c5.523 0 10-4.477 10-10v-171.48c0-5.523-4.477-10-10-10h-171.48c-5.523 0-10 4.477-10 10v171.48c0 5.523 4.477 10 10 10z" fill="#f4dd45"/><circle cx="42.667" cy="31.22" fill="#e27a66" r="10.407"/><circle cx="85.333" cy="31.22" fill="#f4dd45" r="10.407"/><circle cx="128" cy="31.22" fill="#aad540" r="10.407"/><path d="m143.987 286.699 87.038-167.926v-6.488c0-5.167-3.808-9.433-8.768-10.175l-86.972 167.799-86.972-167.799c-4.96.742-8.768 5.008-8.768 10.175v6.488l87.037 167.925-87.037 167.927v6.488c0 5.167 3.808 9.433 8.768 10.175l86.972-167.799 86.972 167.799c4.96-.742 8.768-5.008 8.768-10.175v-6.488z" fill="#86f1a7"/><path d="m472.455 283.162v-.625l-84.813-84.813 84.813-84.813v-.625c0-5.69-4.612-10.302-10.302-10.302h-.625l-84.813 84.813-84.813-84.813h-.625c-5.69 0-10.302 4.612-10.302 10.302v.625l84.813 84.813-84.813 84.813v.625c0 5.69 4.612 10.302 10.302 10.302h.625l84.813-84.813 84.813 84.813h.625c5.69-.001 10.302-4.613 10.302-10.302z" fill="#ecc32e"/><g fill="#665e66"><path d="m472.455 336.572h-191.479c-4.267 0-7.726-3.459-7.726-7.726s3.459-7.726 7.726-7.726h191.479c4.267 0 7.726 3.459 7.726 7.726.001 4.267-3.459 7.726-7.726 7.726z"/><path d="m472.455 378.198h-191.479c-4.267 0-7.726-3.459-7.726-7.726s3.459-7.726 7.726-7.726h191.479c4.267 0 7.726 3.459 7.726 7.726.001 4.266-3.459 7.726-7.726 7.726z"/><path d="m388.162 419.824h-107.186c-4.267 0-7.726-3.459-7.726-7.726s3.459-7.726 7.726-7.726h107.187c4.267 0 7.726 3.459 7.726 7.726s-3.459 7.726-7.727 7.726z"/></g></svg>