<svg id="Capa_1" enable-background="new 0 0 512 512" height="512" viewBox="0 0 512 512" width="512" xmlns="http://www.w3.org/2000/svg"><path d="m390.59 512h-281.08c-5.69 0-10.302-4.612-10.302-10.302v-491.396c0-5.69 4.612-10.302 10.302-10.302h270.779c5.69 0 10.302 4.612 10.302 10.302v501.698z" fill="#665e66"/><path d="m370.818 0v512h19.772v-501.698c0-5.69-4.612-10.302-10.302-10.302z" fill="#544f57"/><path d="m99.208 480.78v-449.56h65.644c4.04 0 7.707 2.361 9.378 6.039l6.846 15.061c3.377 7.43 10.786 12.201 18.947 12.201h44.875 44.875c8.162 0 15.57-4.77 18.947-12.201l6.846-15.061c1.672-3.678 5.339-6.039 9.378-6.039h65.644v449.56z" fill="#90d8f9"/><path d="m370.818 31.22h19.772v449.561h-19.772z" fill="#75cef9"/><path d="m244.899 376.715c-63.12 0-114.472-51.352-114.472-114.472s51.352-114.472 114.472-114.472 114.472 51.352 114.472 114.472-51.352 114.472-114.472 114.472z" fill="#d8f1a0"/><path d="m244.899 345.496c-45.905 0-83.252-37.347-83.252-83.252s37.347-83.252 83.252-83.252 83.252 37.347 83.252 83.252-37.346 83.252-83.252 83.252z" fill="#c8ea73"/><circle cx="244.899" cy="262.244" fill="#aad540" r="52.033"/><path d="m401.869 512c5.234 0 9.645-3.924 10.243-9.124.452-3.933.68-7.894.68-11.862v-94.399c0-12.978-10.092-24.032-23.062-24.493-13.617-.484-24.808 10.411-24.808 23.919v-20.487c0-12.978-10.092-24.032-23.062-24.493-13.617-.484-24.808 10.41-24.808 23.919v-20.239c0-12.978-10.092-24.032-23.062-24.493-13.617-.484-24.808 10.411-24.808 23.919v-72.272c0-12.978-10.092-24.032-23.062-24.493-13.617-.484-24.808 10.411-24.808 23.919v149.619c0 3.671-4.439 5.51-7.035 2.914l-15.339-15.339c-9.483-9.483-24.858-9.483-34.341 0-9.483 9.483-9.483 24.858 0 34.341l40.561 54.958c1.942 2.631 5.018 4.184 8.289 4.184h188.422z" fill="#f1d0a5"/><g fill="#f1b986"><path d="m249.758 281.323v119.675c0 5.747 4.659 10.406 10.407 10.406h2.837c3.414 0 6.181-2.767 6.181-6.181v-123.9c0-13.219-10.716-23.935-23.935-23.935-3.459 0-6.743.74-9.712 2.06 8.377 3.725 14.222 12.114 14.222 21.875z"/><path d="m297.628 354.168v46.829c0 5.747 4.659 10.406 10.406 10.406h2.837c3.414 0 6.181-2.767 6.181-6.181v-51.055c0-13.219-10.716-23.935-23.935-23.935-3.459 0-6.743.74-9.712 2.06 8.378 3.726 14.223 12.116 14.223 21.876z"/><path d="m345.498 374.981v26.016c0 5.747 4.659 10.406 10.407 10.406h2.837c3.414 0 6.181-2.767 6.181-6.181v-30.242c0-13.219-10.716-23.935-23.935-23.935-3.459 0-6.743.74-9.712 2.06 8.377 3.726 14.222 12.116 14.222 21.876z"/><path d="m393.368 396.041v94.973c0 7.056-.721 14.087-2.141 20.986h10.643c5.234 0 9.645-3.924 10.243-9.124.452-3.933.68-7.894.68-11.862v-94.973c0-13.219-10.716-23.935-23.935-23.935-3.459 0-6.743.74-9.712 2.06 8.377 3.725 14.222 12.115 14.222 21.875z"/></g><circle cx="215.761" cy="29.138" fill="#544f57" r="10.407"/><path d="m284.443 36.865h-40.585c-4.267 0-7.726-3.459-7.726-7.726s3.459-7.726 7.726-7.726h40.585c4.268 0 7.726 3.459 7.726 7.726s-3.458 7.726-7.726 7.726z" fill="#544f57"/></svg>